<svg width="24" height="25" viewBox="0 0 24 25" fill="none" xmlns="http://www.w3.org/2000/svg">
<path d="M2.5 12.75L1.75 12.75L1.75 11.25L2.5 11.25L2.5 12.75ZM22.0303 11.4697C22.3232 11.7626 22.3232 12.2374 22.0303 12.5303L17.2574 17.3033C16.9645 17.5962 16.4896 17.5962 16.1967 17.3033C15.9038 17.0104 15.9038 16.5355 16.1967 16.2426L20.4393 12L16.1967 7.75736C15.9038 7.46447 15.9038 6.98959 16.1967 6.6967C16.4896 6.40381 16.9645 6.40381 17.2574 6.6967L22.0303 11.4697ZM2.5 11.25L21.5 11.25L21.5 12.75L2.5 12.75L2.5 11.25Z" fill="#FDFDFD"/>
</svg>
