<svg width="24" height="24" fill="none" xmlns="http://www.w3.org/2000/svg"><path d="M17.741 9.773c2.545 3.9.598 8.366-.344 10.109a1.902 1.902 0 0 1-.543.609c-.22.158-.469.261-.73.303-1.845.346-6.44.733-8.908-3.166-2.431-3.679-2.33-10.15-2.113-13.235a1.55 1.55 0 0 1 .171-.654c.104-.2.25-.37.427-.498a1.238 1.238 0 0 1 1.21-.148c2.736.858 8.437 3.001 10.83 6.68Z" stroke="#0E1C15" stroke-width="1.6" stroke-linecap="round" stroke-linejoin="round"/><path d="M9.164 8.487A72.803 72.803 0 0 1 16.8 20.56L9.164 8.488Z" fill="#FDFDFD"/><path d="M9.164 8.487A72.803 72.803 0 0 1 16.8 20.56" stroke="#0E1C15" stroke-width="1.6" stroke-linecap="round" stroke-linejoin="round"/></svg>