<svg width="24" height="24" fill="none" xmlns="http://www.w3.org/2000/svg"><path d="m21.219 10-.274.038-.742.456-.625.303-.586.228-.781.228-1.875.342-1.016.304-.82.38-.508.341-.43.342-.351.342-.508.645-.312.494-.352-.494-.351-.38-.352-.341-.586-.418-.664-.38-.742-.303-.899-.266-1.367-.266-.976-.19-.743-.228-.586-.228-.625-.303-.546-.304L3.094 10H2.82l-.195.152-.273.721-.196.722-.156.987v1.71l.156 1.024.196.76.273.797.43.912.468.76.352.455.352.418.468.493.313.266.664.494.586.342.898.417.742.228 1.016.228.938.114h1.835l.352-.076.117-.152v-.342l-.508-1.025-.546-.873-.508-.684-.43-.531-.508-.57-.625-.646-.586-.531-.547-.456-.664-.494-.546-.38h-.352l-.156.152-.04.228.118.228.664.456.547.418.547.455.312.304.313.266.351.38.39.417.43.532.43.57.43.645.469.798.117.228h-1.094l-1.055-.114-.976-.228-.586-.19-.781-.342-.586-.342-.43-.303-.43-.342-.625-.608-.508-.645-.43-.684-.39-.797-.351-1.026-.196-.873-.078-.646v-1.443l.117-.835.235-.874.078-.114.625.38.976.456 1.055.342.938.19 1.406.265 1.015.304.704.304.507.304.508.38.508.493.39.57.313.683.195.646.196 1.14.078.91.039 1.254.04.38.155.151.664.152.586.076h1.602l.976-.152.704-.19.703-.303.586-.304.625-.456.39-.342.196-.152.273-.303.469-.57.43-.684.312-.607.234-.57.235-.76.156-.759.039-.304v-1.633l-.156-.91-.235-.76-.234-.456-.156-.076Zm-.235.873.235.874.078.531.039.532-.04.95-.116.721-.235.835-.351.836-.43.721-.312.418-.43.494-.43.418-.508.38-.507.303-.82.38-.821.228-.703.114-.703.038-.742-.038-.508-.076.234-.418.39-.532.508-.607.47-.494.937-.911.43-.342.507-.418.742-.532.352-.227.04-.076v-.304l-.157-.152h-.274l-.43.266-.624.456-.547.417-.586.494-.586.531-.43.418-.273.304-.547.646-.43.607-.078-.114-.078-1.101-.156-.95-.274-1.025-.039-.152.352-.721.351-.494.352-.418.39-.38.626-.417.625-.304.937-.304 1.406-.265.899-.19.82-.266.781-.342.586-.342h.078Z" fill="#0E1C15" stroke="#0E1C15" stroke-width=".8"/><path d="M15.137 2h-.753l-.678.15-.64.303-.34.264-.188.15-.151-.075-.452-.34-.603-.301L10.73 2h-.98l-.603.15-.452.19-.452.302-.377.34-.339.452-.301.604-.15.49L7 5.094v.34L7.075 6l.189.566.263.49.34.416 1.092 1.094.264.302 3.089 3.094.075.038h.226l.301-.264 4.144-4.151.34-.415.3-.528.189-.529.075-.34L18 5.17l-.075-.642-.226-.679-.34-.566-.452-.49-.451-.34-.528-.264-.527-.151L15.137 2Zm.038.68.527.15.49.264.377.34.3.34.302.603.113.415.038.453-.075.604-.189.528-.264.415-.338.378-1.13 1.132-.264.302-2.524 2.528-.151-.075-2.9-2.906-.264-.302-.98-.981-.301-.49-.189-.529-.037-.189v-.83l.113-.415.15-.377.264-.378.302-.34.49-.339.451-.189.565-.113h.377l.603.113.603.302.339.264.263.265.113.075h.302l.376-.34.302-.264.602-.302.415-.113h.829Z" fill="#0E1C15" stroke="#0E1C15" stroke-width=".8"/></svg>