<svg width="16" height="20" fill="none" xmlns="http://www.w3.org/2000/svg"><path d="M2.259 7.773c-2.545 3.9-.598 8.366.344 10.109.138.243.323.451.543.609.22.158.469.261.73.303 1.845.346 6.44.733 8.908-3.167 2.431-3.678 2.33-10.15 2.113-13.234a1.547 1.547 0 0 0-.171-.654c-.104-.2-.25-.37-.427-.498a1.238 1.238 0 0 0-1.21-.148c-2.736.858-8.437 3.001-10.83 6.68Z" stroke="#0E1C15" stroke-width="1.6" stroke-linecap="round" stroke-linejoin="round"/><path d="M10.836 6.487A72.806 72.806 0 0 0 3.2 18.56l7.636-12.073Z" fill="#FDFDFD"/><path d="M10.836 6.487A72.806 72.806 0 0 0 3.2 18.56" stroke="#0E1C15" stroke-width="1.6" stroke-linecap="round" stroke-linejoin="round"/></svg>