<svg width="24" height="24" viewBox="0 0 24 24" fill="none" xmlns="http://www.w3.org/2000/svg">
<path d="M17.741 9.77284C20.2864 13.6725 18.3392 18.1392 17.3974 19.8816C17.2593 20.1253 17.0738 20.3333 16.854 20.491C16.6341 20.6486 16.3852 20.7521 16.1247 20.7943C14.2793 21.14 9.68481 21.5272 7.21576 17.6275C4.7849 13.9491 4.88672 7.47728 5.10308 4.39348C5.11161 4.16373 5.17023 3.93946 5.27413 3.73914C5.37803 3.53882 5.52422 3.36817 5.70069 3.24125C5.87715 3.11432 6.07883 3.03475 6.28913 3.00908C6.49943 2.98341 6.71233 3.01237 6.91031 3.09358C9.64663 3.95096 15.3483 6.09441 17.741 9.77284Z" stroke="#0E1C15" stroke-width="1.6" stroke-linecap="round" stroke-linejoin="round"/>
<path d="M9.16406 8.48706C12.0792 12.2198 14.6378 16.2647 16.8003 20.5595L9.16406 8.48706Z" fill="#FDFDFD"/>
<path d="M9.16406 8.48706C12.0792 12.2198 14.6378 16.2647 16.8003 20.5595" stroke="#0E1C15" stroke-width="1.6" stroke-linecap="round" stroke-linejoin="round"/>
</svg>
