<svg width="24" height="24" viewBox="0 0 24 24" fill="none" xmlns="http://www.w3.org/2000/svg">
<path d="M21.2188 10L20.9453 10.038L20.2031 10.4937L19.5781 10.7975L18.9922 11.0253L18.2109 11.2532L16.3359 11.5949L15.3203 11.8987L14.5 12.2785L13.9922 12.6203L13.5625 12.962L13.2109 13.3038L12.7031 13.9494L12.3906 14.443L12.0391 13.9494L11.6875 13.5696L11.3359 13.2278L10.75 12.8101L10.0859 12.4304L9.34375 12.1266L8.44531 11.8608L7.07812 11.5949L6.10156 11.4051L5.35938 11.1772L4.77344 10.9494L4.14844 10.6456L3.60156 10.3418L3.09375 10H2.82031L2.625 10.1519L2.35156 10.8734L2.15625 11.5949L2 12.5823V14.2911L2.15625 15.3165L2.35156 16.0759L2.625 16.8734L3.05469 17.7848L3.52344 18.5443L3.875 19L4.22656 19.4177L4.69531 19.9114L5.00781 20.1772L5.67188 20.6709L6.25781 21.0127L7.15625 21.4304L7.89844 21.6582L8.91406 21.8861L9.85156 22H11.6875L12.0391 21.9241L12.1562 21.7722V21.4304L11.6484 20.4051L11.1016 19.5316L10.5938 18.8481L10.1641 18.3165L9.65625 17.7468L9.03125 17.1013L8.44531 16.5696L7.89844 16.1139L7.23438 15.6203L6.6875 15.2405H6.33594L6.17969 15.3924L6.14062 15.6203L6.25781 15.8481L6.92188 16.3038L7.46875 16.7215L8.01562 17.1772L8.32812 17.481L8.64062 17.7468L8.99219 18.1266L9.38281 18.5443L9.8125 19.0759L10.2422 19.6456L10.6719 20.2911L11.1406 21.0886L11.2578 21.3165H10.1641L9.10938 21.2025L8.13281 20.9747L7.54688 20.7848L6.76562 20.443L6.17969 20.1013L5.75 19.7975L5.32031 19.4557L4.69531 18.8481L4.1875 18.2025L3.75781 17.519L3.36719 16.7215L3.01562 15.6962L2.82031 14.8228L2.74219 14.1772V12.7342L2.85938 11.8987L3.09375 11.0253L3.17188 10.9114L3.79688 11.2911L4.77344 11.7468L5.82812 12.0886L6.76562 12.2785L8.17188 12.5443L9.1875 12.8481L9.89062 13.1519L10.3984 13.4557L10.9062 13.8354L11.4141 14.3291L11.8047 14.8987L12.1172 15.5823L12.3125 16.2278L12.5078 17.3671L12.5859 18.2785L12.625 19.5316L12.6641 19.9114L12.8203 20.0633L13.4844 20.2152L14.0703 20.2911H15.6719L16.6484 20.1392L17.3516 19.9494L18.0547 19.6456L18.6406 19.3418L19.2656 18.8861L19.6562 18.5443L19.8516 18.3924L20.125 18.0886L20.5938 17.519L21.0234 16.8354L21.3359 16.2278L21.5703 15.6582L21.8047 14.8987L21.9609 14.1392L22 13.8354V12.2025L21.8438 11.2911L21.6094 10.5316L21.375 10.0759L21.2188 10ZM20.9844 10.8734L21.2188 11.7468L21.2969 12.2785L21.3359 12.8101L21.2969 13.7595L21.1797 14.481L20.9453 15.3165L20.5938 16.1519L20.1641 16.8734L19.8516 17.2911L19.4219 17.7848L18.9922 18.2025L18.4844 18.5823L17.9766 18.8861L17.1562 19.2658L16.3359 19.4937L15.6328 19.6076L14.9297 19.6456L14.1875 19.6076L13.6797 19.5316L13.9141 19.1139L14.3047 18.5823L14.8125 17.9747L15.2812 17.481L16.2188 16.5696L16.6484 16.2278L17.1562 15.8101L17.8984 15.2785L18.25 15.0506L18.2891 14.9747V14.6709L18.1328 14.519H17.8594L17.4297 14.7848L16.8047 15.2405L16.2578 15.6582L15.6719 16.1519L15.0859 16.6835L14.6562 17.1013L14.3828 17.4051L13.8359 18.0506L13.4062 18.6582L13.3281 18.5443L13.25 17.443L13.0938 16.4937L12.8203 15.4684L12.7812 15.3165L13.1328 14.5949L13.4844 14.1013L13.8359 13.6835L14.2266 13.3038L14.8516 12.8861L15.4766 12.5823L16.4141 12.2785L17.8203 12.0127L18.7188 11.8228L19.5391 11.557L20.3203 11.2152L20.9062 10.8734H20.9844Z" fill="#0E1C15" stroke="#0E1C15" stroke-width="0.8"/>
<path d="M15.137 2H14.3836L13.7055 2.15094L13.0651 2.45283L12.726 2.71698L12.5377 2.86792L12.387 2.79245L11.9349 2.45283L11.3322 2.15094L10.7295 2H9.75L9.14726 2.15094L8.6952 2.33962L8.24315 2.64151L7.86644 2.98113L7.5274 3.43396L7.22603 4.03774L7.07534 4.5283L7 5.09434V5.43396L7.07534 6L7.2637 6.56604L7.5274 7.0566L7.86644 7.4717L8.9589 8.56604L9.2226 8.86792L12.3116 11.9623L12.387 12H12.613L12.9144 11.7358L17.0582 7.58491L17.3973 7.16981L17.6986 6.64151L17.887 6.11321L17.9623 5.77358L18 5.16981L17.9247 4.5283L17.6986 3.84906L17.3596 3.28302L16.9075 2.79245L16.4555 2.45283L15.9281 2.18868L15.4007 2.03774L15.137 2ZM15.1747 2.67925L15.7021 2.83019L16.1918 3.09434L16.5685 3.43396L16.8699 3.77358L17.1712 4.37736L17.2842 4.79245L17.3219 5.24528L17.2466 5.84906L17.0582 6.37736L16.7945 6.79245L16.4555 7.16981L15.3253 8.30189L15.0616 8.60377L12.5377 11.1321L12.387 11.0566L9.4863 8.15094L9.2226 7.84906L8.24315 6.86792L7.94178 6.37736L7.75342 5.84906L7.71575 5.66038V4.83019L7.82877 4.41509L7.97945 4.03774L8.24315 3.66038L8.54452 3.32075L9.03425 2.98113L9.4863 2.79245L10.0514 2.67925H10.4281L11.0308 2.79245L11.6336 3.09434L11.9726 3.35849L12.2363 3.62264L12.3493 3.69811H12.6507L13.0274 3.35849L13.3288 3.09434L13.9315 2.79245L14.3459 2.67925H15.1747Z" fill="#0E1C15" stroke="#0E1C15" stroke-width="0.8"/>
</svg>
