<svg width="16" height="20" viewBox="0 0 16 20" fill="none" xmlns="http://www.w3.org/2000/svg">
<path d="M2.25898 7.77284C-0.286427 11.6725 1.66081 16.1392 2.60261 17.8816C2.74072 18.1253 2.92619 18.3333 3.14603 18.491C3.36587 18.6486 3.61478 18.7521 3.87531 18.7943C5.72073 19.14 10.3152 19.5272 12.7842 15.6275C15.2151 11.9491 15.1133 5.47728 14.8969 2.39348C14.8884 2.16373 14.8298 1.93946 14.7259 1.73914C14.622 1.53882 14.4758 1.36817 14.2993 1.24125C14.1229 1.11432 13.9212 1.03475 13.7109 1.00908C13.5006 0.983406 13.2877 1.01237 13.0897 1.09358C10.3534 1.95096 4.65166 4.09441 2.25898 7.77284Z" stroke="#0E1C15" stroke-width="1.6" stroke-linecap="round" stroke-linejoin="round"/>
<path d="M10.8359 6.4873C7.92078 10.22 5.36223 14.265 3.19972 18.5597L10.8359 6.4873Z" fill="#FDFDFD"/>
<path d="M10.8359 6.4873C7.92078 10.22 5.36223 14.265 3.19972 18.5597" stroke="#0E1C15" stroke-width="1.6" stroke-linecap="round" stroke-linejoin="round"/>
</svg>
